<svg xmlns="http://www.w3.org/2000/svg" viewBox="0 0 300 300" xml:space="preserve"><path d="m194.839 115.958 1.576.678a5.164 5.164 0 0 0 2.044.423 5.184 5.184 0 0 0 4.76-3.134 5.18 5.18 0 0 0-2.712-6.802l-1.578-.678a5.179 5.179 0 0 0-6.802 2.711 5.18 5.18 0 0 0 2.712 6.802z"/><path d="M240.331 157.468v-29.814a5.179 5.179 0 0 0-5.178-5.177h-88.727a5.177 5.177 0 1 0 0 10.356h63.576l-63.576 27.333-75.619-32.512 75.619-32.509 33.941 14.592a5.178 5.178 0 0 0 4.09-9.513L148.47 84.751a5.18 5.18 0 0 0-4.09 0l-88.729 38.146a5.18 5.18 0 0 0 0 9.514l88.729 38.146a5.202 5.202 0 0 0 4.09 0l48.833-20.996v35.826c-28.496 26.367-73.263 26.367-101.761 0l.002-9.137a5.177 5.177 0 1 0-10.354-.002l-.002 11.357c0 1.393.561 2.725 1.555 3.699 16.03 15.711 37.225 24.363 59.682 24.363 22.455 0 43.65-8.652 59.681-24.363a5.178 5.178 0 0 0 1.554-3.698l-.002-42.497 22.318-9.595v21.952c-4.219 1.961-7.15 6.236-7.15 11.186 0 5.078 3.79 18.441 12.327 18.441 8.538 0 12.328-13.363 12.328-18.441 0-4.948-2.932-9.223-7.15-11.184zm-5.178 17.872c-1.007-1.976-1.973-5.029-1.973-6.687 0-1.088.884-1.974 1.973-1.974 1.088 0 1.972.886 1.972 1.974 0 1.658-.966 4.712-1.972 6.687z"/><path d="M90.369 165.68a5.176 5.176 0 0 0 5.176-5.177v-1.724a5.177 5.177 0 1 0-10.354 0v1.724a5.177 5.177 0 0 0 5.178 5.177z"/></svg>